<?xml version="1.0" encoding="UTF-8"?>
<svg id="Layer_2" data-name="Layer 2" xmlns="http://www.w3.org/2000/svg" viewBox="0 0 347.14 90">
  <defs>
    <style>
      .cls-1 {
        fill: #1b1d1f;
      }

      .cls-2 {
        fill: #cdf564;
      }
    </style>
  </defs>
  <g id="Text_Labels" data-name="Text Labels">
    <g>
      <g>
        <polygon class="cls-1" points="216.01 0 208.16 7.85 208.16 0 146.57 0 133.59 12.99 120.6 0 46.29 0 0 46.29 8.08 46.29 .37 54 30.86 54 2.57 82.29 10.65 82.29 2.94 90 120.97 90 133.95 77.01 146.94 90 208.53 90 208.53 82.16 216.37 90 298.33 90 347.14 41.14 343.11 37.1 346.77 33.43 313.38 0 216.01 0"/>
        <polygon class="cls-2" points="311.78 3.86 217.6 3.86 204.3 17.16 204.3 3.86 148.17 3.86 133.59 18.44 119 3.86 47.88 3.86 9.31 42.43 47.88 42.43 11.88 78.43 119 78.43 133.59 63.85 148.17 78.43 204.3 78.43 204.3 65.13 217.6 78.43 296.37 78.43 341.32 33.43 311.78 3.86"/>
        <polygon class="cls-1" points="219.74 9 199.16 29.58 199.16 9 150.3 9 133.59 25.72 116.87 9 86.01 9 110.44 33.43 102.73 18 120.09 39.22 95.01 64.29 87.3 56.57 71.87 56.57 98.87 29.57 78.3 9 50.01 9 21.73 37.29 52.59 37.29 64.16 25.72 68.01 29.57 24.3 73.29 116.87 73.29 133.59 56.57 150.3 73.29 181.16 73.29 156.73 48.86 164.44 64.29 147.09 43.07 172.18 17.98 172.18 56.58 188.87 73.29 199.16 73.29 199.16 52.72 219.73 73.29 250.59 73.29 214.59 37.29 222.3 37.29 250.59 9 219.74 9"/>
        <path class="cls-1" d="M258.27,9l-32.11,32.14,32.11,32.14h35.97l39.82-39.86-24.41-24.43h-51.38ZM256.98,41.14l15.41-15.43h23.12l7.71,7.71-23.12,23.14h-7.71l-15.41-15.43Z"/>
      </g>
      <g>
        <path class="cls-1" d="M329.31.47h-1.45v3.81h-.54V.47h-1.45v-.47h3.43v.47Z"/>
        <path class="cls-1" d="M334.05,0v4.28h-.52V.59h-.02l-1.3,3.69h-.44l-1.31-3.69h-.02v3.69h-.5V0h.86l1.19,3.44h.02l1.19-3.44h.86Z"/>
      </g>
    </g>
  </g>
</svg>