<?xml version="1.0" encoding="UTF-8"?>
<svg id="Layer_2" data-name="Layer 2" xmlns="http://www.w3.org/2000/svg" viewBox="0 0 126.37 99.18">
  <defs>
    <style>
      .cls-1 {
        fill: #1b1d1f;
      }

      .cls-2 {
        fill: #cdf564;
      }
    </style>
  </defs>
  <g id="Text_Labels" data-name="Text Labels">
    <g>
      <g>
        <polygon class="cls-1" points="91.13 0 83.06 8.08 74.98 0 28.78 0 0 28.79 5.02 28.79 .23 33.59 19.19 33.59 1.6 51.19 6.62 51.19 1.83 55.99 7.99 55.99 7.99 80.7 8.22 80.93 8.22 85.5 21.87 99.18 36.18 99.18 36.18 94.3 41.06 99.18 92.02 99.18 122.37 68.78 119.86 66.27 122.14 63.99 114.15 55.99 126.37 55.99 121.57 51.19 126.14 51.19 103.07 28.11 126.37 4.8 121.35 4.8 126.14 0 91.13 0"/>
        <polygon class="cls-2" points="97.19 25.59 120.38 2.4 92.14 2.4 83.07 11.47 73.99 2.4 29.75 2.4 5.76 26.39 29.75 26.39 7.36 48.79 10.36 48.79 10.36 79.71 22.62 91.98 33.54 91.98 33.54 83.71 41.81 91.98 65.79 91.98 70.06 91.98 90.81 91.98 118.78 63.99 103.6 48.79 120.38 48.79 97.19 25.59"/>
        <polygon class="cls-1" points="93.46 5.6 83.07 16 72.67 5.6 53.47 5.6 68.67 20.8 63.87 11.2 74.67 24.39 59.07 39.99 54.27 35.19 44.67 35.19 61.47 18.4 48.67 5.6 31.08 5.6 13.48 23.2 32.68 23.2 39.88 16 42.28 18.4 15.08 45.59 72.67 45.59 83.07 35.19 93.46 45.59 112.66 45.59 97.46 30.39 102.26 39.99 91.46 26.79 112.66 5.6 93.46 5.6"/>
        <polygon class="cls-1" points="13.56 48.79 13.56 78.38 23.94 88.78 30.34 88.78 30.34 75.98 43.14 88.78 62.33 88.78 39.94 66.39 44.74 66.39 62.34 48.79 43.14 48.79 30.34 61.59 30.34 48.79 13.56 48.79"/>
        <path class="cls-1" d="M67.11,48.79l-19.98,20,19.98,20h22.37l24.77-24.79-15.18-15.2h-31.96ZM66.32,68.78l9.59-9.6h14.38l4.79,4.8-14.38,14.4h-4.79l-9.59-9.6Z"/>
      </g>
      <g>
        <path class="cls-1" d="M100.01,96.79h-.91v2.39h-.34v-2.39h-.91v-.29h2.15v.29Z"/>
        <path class="cls-1" d="M102.99,96.49v2.68h-.33v-2.32h-.01l-.82,2.32h-.27l-.82-2.32h-.01v2.32h-.32v-2.68h.54l.75,2.16h.01l.74-2.16h.54Z"/>
      </g>
    </g>
  </g>
</svg>