<?xml version="1.0" encoding="UTF-8"?>
<svg id="Layer_2" data-name="Layer 2" xmlns="http://www.w3.org/2000/svg" viewBox="0 0 310.94 64">
  <defs>
    <style>
      .cls-1 {
        fill: #1b1d1f;
      }
    </style>
  </defs>
  <g id="Text_Labels" data-name="Text Labels">
    <g>
      <g>
        <polygon class="cls-1" points="197.13 0 176.64 20.49 176.64 0 128 0 111.36 16.64 94.72 0 64 0 88.32 24.32 80.64 8.96 97.92 30.08 72.96 55.04 65.28 47.36 49.92 47.36 76.8 20.48 56.32 0 28.16 0 0 28.16 30.72 28.16 42.24 16.64 46.08 20.48 2.56 64 94.72 64 111.36 47.36 128 64 158.72 64 134.4 39.68 142.08 55.04 124.8 33.92 149.78 8.94 149.78 47.36 166.4 64 176.64 64 176.64 43.52 197.12 64 227.84 64 192 28.16 199.68 28.16 227.85 0 197.13 0"/>
        <path class="cls-1" d="M234.21,32l15.35-15.36h23.02l7.67,7.68-23.02,23.04h-7.67l-15.35-15.36ZM235.49,0l-31.97,32,31.97,32h35.81l39.64-39.68L286.64,0h-51.15Z"/>
      </g>
      <g>
        <path class="cls-1" d="M306.19.47h-1.45v3.81h-.54V.47h-1.45v-.47h3.43v.47Z"/>
        <path class="cls-1" d="M310.94,0v4.28h-.52V.59h-.02l-1.3,3.69h-.44l-1.31-3.69h-.02v3.69h-.5V0h.86l1.19,3.44h.02l1.19-3.44h.86Z"/>
      </g>
    </g>
  </g>
</svg>